<svg xmlns="http://www.w3.org/2000/svg" viewBox="0 0 500 500"><g id="freepik--background-simple--inject-4"><path d="M186.76,455.23c105.5,19.45,210.48-68.29,258.77-152.41,32.09-55.9,44.87-121.51,26.15-174.9C458,88.8,423.44,50.9,372.12,49.23c-57.2-1.85-103.24,54.14-162,53S82,125.19,48.37,168.84,7.88,292.1,36.48,353.86c16.31,35.21,45.18,65.37,82.71,83.68,20.63,10,42.92,12.91,66.28,17.44Z" style="fill:#FF33CC"></path><path d="M186.76,455.23c105.5,19.45,210.48-68.29,258.77-152.41,32.09-55.9,44.87-121.51,26.15-174.9C458,88.8,423.44,50.9,372.12,49.23c-57.2-1.85-103.24,54.14-162,53S82,125.19,48.37,168.84,7.88,292.1,36.48,353.86c16.31,35.21,45.18,65.37,82.71,83.68,20.63,10,42.92,12.91,66.28,17.44Z" style="fill:#fff;opacity:0.8"></path></g><g id="freepik--Character--inject-4"><path d="M87.26,329.89c2.78-10.8,8-49.07,8-49.07s2.78,26.54,4.94,34.57,3.09,14.19,5.25,27.46a91.56,91.56,0,0,1-4.32,45.37c-4.63,13.27-12.66,35.18-16.36,52.46a179.64,179.64,0,0,0-3.4,35.15H265c-.4-3.5-4.07-34.05-10.76-56.13-7.09-23.46-15.43-39.51-16-46.29s-8.34-22.53-4.63-37,4-21.29,4-21.29,12.65,39.5,13,49.38,3.09,31.78,8.95,45.36,17.28,52.77,18.52,59.25c.67,3.55,1,5.61,1.11,6.76h23.22c-.3-7.94-2-51-3.66-66.93-1.85-17.6-8.33-46.3-10.8-52.78s-4.63-14.81-4.63-14.81-11.11-60.49-11.11-69.13,2.47-27.46-6.17-45.05-34.56-19.44-46.29-22.84-19.13-6.17-22.22-13-.62-20.37-.62-20.37-10.18,3.7-26.23-10.18S153,144.11,153,144.11s-4-3.08-3.7,3.4c0,0,.31,21.6-2.78,33S131.7,195,120,198.43s-23.82,5.84-35.33,10.19c-17.86,6.75-28.7,21.83-27.93,41C57,257.52,53,272.8,52.39,274S43.75,311.68,40.66,325s-5.56,21-2.78,28.4S53,362,68.43,357.67,84.48,340.69,87.26,329.89Z" style="fill:#fff;stroke:#263238;stroke-linecap:round;stroke-linejoin:round"></path><polygon points="95.28 280.82 93.41 268.3 92.22 302.43 95.28 280.82" style="fill:#263238;stroke:#263238;stroke-linecap:round;stroke-linejoin:round"></polygon><path d="M237.55,315.08a114.38,114.38,0,0,0,1.65-17.21V285.64s2.45,12.93,4.55,26.22a220.08,220.08,0,0,1,2.09,29Z" style="fill:#263238;stroke:#263238;stroke-linecap:round;stroke-linejoin:round"></path><path d="M150,150.31s8,34.93,46.76,39.28c-2.08-7.13,0-18.63,0-18.63s-10.18,3.7-26.23-10.18c-7-6-11.18-9.94-13.74-12.47Z" style="fill:#263238;stroke:#263238;stroke-linecap:round;stroke-linejoin:round"></path><path d="M212.55,208.37s-16.1,3.71-26,4.95" style="fill:none;stroke:#263238;stroke-linecap:round;stroke-linejoin:round"></path><path d="M132.5,207.55s12.38,4.12,22.69,4.53" style="fill:none;stroke:#263238;stroke-linecap:round;stroke-linejoin:round"></path><path d="M110.4,323.72s10.8,8,33.33-2.47c0,0-19.87,15.65-33.33,2.47" style="fill:#263238;stroke:#263238;stroke-linecap:round;stroke-linejoin:round"></path><path d="M225.36,96s-.48,10.13-2.41,15.43-3.38,16.4-2.9,21.23,1.93,13.5-2.89,21.7c-3.92,6.67-10.09,12.32-15.8,17.45-2.05,1.85-4.34,4.35-6.84,5.63-15.73,8-26.75-7.46-37.65-15.85-6.27-4.82-9.69-11.68-11.53-19a56.24,56.24,0,0,0-2-6.52s-9.17,4.34-11.58-10.61,8.2-35.21,28.46-46.78S214.75,69.51,225.36,96Z" style="fill:#fff;stroke:#263238;stroke-linecap:round;stroke-linejoin:round"></path><path d="M184.49,110.8s-8.94-5-21,1.84" style="fill:none;stroke:#263238;stroke-linecap:round;stroke-linejoin:round;stroke-width:3px"></path><path d="M201.3,111.07s8.93-5.78,15.5,1.05" style="fill:none;stroke:#263238;stroke-linecap:round;stroke-linejoin:round;stroke-width:3px"></path><path d="M201,112.91s-3.68,8.4-3.68,11,1,19.44.52,20.75-3.15,2.63-7.62,2.1-5.77-3.15-5.77-3.15" style="fill:none;stroke:#263238;stroke-linecap:round;stroke-linejoin:round"></path><path d="M179,153.36s6,2.63,10.77,2.63S200,153.1,200,153.1" style="fill:none;stroke:#263238;stroke-linecap:round;stroke-linejoin:round"></path><path d="M202.61,124.47s6.83,3.41,12.87.26l1.84,1s-2.92,3.83-8.93,2.89A8,8,0,0,1,202.61,124.47Z" style="fill:#263238;stroke:#263238;stroke-linecap:round;stroke-linejoin:round"></path><path d="M164.72,124.67s9.52,3.21,15.56.06l1.41,2.41a22,22,0,0,1-8.5,1.53C169,128.41,164.72,124.67,164.72,124.67Z" style="fill:#263238;stroke:#263238;stroke-linecap:round;stroke-linejoin:round"></path><path d="M133.72,132.7c-.33,2.65.68-19.09,28.18-34.2,28.2-15.49,63.94.43,63.94.43s7.24-12.05-1-29.9-34.73-29.42-59.33-29.42S136.13,55.53,127,61.31s-28.46,21.23-24.6,27.5S113,101.35,113,101.35A69.54,69.54,0,0,0,133.72,132.7Z" style="fill:#FF33CC"></path><g style="opacity:0.35000000000000003"><path d="M129.75,85.86a3.14,3.14,0,0,0-.75-4.25,3,3,0,1,0-3.49,5A3.14,3.14,0,0,0,129.75,85.86Z" style="fill:#fff"></path><path d="M130.9,79.23a3,3,0,0,0,4-4.59,3,3,0,1,0-4,4.59Z" style="fill:#fff"></path><path d="M124.71,117.71a3.16,3.16,0,0,0,3-5.56,3.16,3.16,0,1,0-3,5.56Z" style="fill:#fff"></path><path d="M122.63,65.91A3.23,3.23,0,0,0,123,64c-1.39,1-2.86,2.07-4.36,3.24A3.15,3.15,0,0,0,122.63,65.91Z" style="fill:#fff"></path><path d="M134.85,101.77A3.16,3.16,0,0,0,139,97a3.16,3.16,0,0,0-4.14,4.77Z" style="fill:#fff"></path><path d="M110.37,84.23a3.16,3.16,0,0,0,2.41-5.83,3.15,3.15,0,0,0-2.41,5.83Z" style="fill:#fff"></path><path d="M119.53,97.21a3,3,0,1,0-2.45,5.57,3,3,0,0,0,2.45-5.57Z" style="fill:#fff"></path><path d="M114.1,75.53a3.15,3.15,0,0,0,2.8-5.65,3,3,0,0,0-1.15-.33c-1.14,1-2.27,1.92-3.37,2.91A3,3,0,0,0,114.1,75.53Z" style="fill:#fff"></path><path d="M125.05,93.32a3.13,3.13,0,0,0-1.18-4.15,3,3,0,1,0-3,5.32A3.14,3.14,0,0,0,125.05,93.32Z" style="fill:#fff"></path><path d="M152.64,89.12a3.19,3.19,0,0,0,.79-4.31,3.16,3.16,0,1,0-5.12,3.69A3.18,3.18,0,0,0,152.64,89.12Z" style="fill:#fff"></path><path d="M132.92,104.26a3.16,3.16,0,0,0-3.58,5.2,3.16,3.16,0,0,0,3.58-5.2Z" style="fill:#fff"></path><path d="M148.91,63a3,3,0,1,0-.73,4.22A3.12,3.12,0,0,0,148.91,63Z" style="fill:#fff"></path><path d="M155.62,62.52a3.17,3.17,0,0,0,1.16-4.18,3,3,0,1,0-5.32,3A3.18,3.18,0,0,0,155.62,62.52Z" style="fill:#fff"></path><path d="M137.07,72.49a3,3,0,1,0,.12-4.39A3,3,0,0,0,137.07,72.49Z" style="fill:#fff"></path><path d="M160.33,84.24a3.17,3.17,0,0,0,1.29-4.17,3.16,3.16,0,1,0-5.53,3A3.18,3.18,0,0,0,160.33,84.24Z" style="fill:#fff"></path><path d="M163.51,58.65a3,3,0,0,0,1.66-3.93,3,3,0,1,0-5.62,2.34A3,3,0,0,0,163.51,58.65Z" style="fill:#fff"></path><path d="M170,49.81a3,3,0,0,0-2,3.84,3.17,3.17,0,0,0,3.81,2.08,3.14,3.14,0,0,0,2-3.83A3,3,0,0,0,170,49.81Z" style="fill:#fff"></path><path d="M180.4,53.57A3.15,3.15,0,0,0,182.79,50a3,3,0,0,0-3.61-2.48,3.1,3.1,0,0,0,1.22,6.07Z" style="fill:#fff"></path><path d="M109.26,87.18a3.16,3.16,0,0,0-2,6,3.16,3.16,0,0,0,2-6Z" style="fill:#fff"></path><path d="M186.06,75.05a3.16,3.16,0,0,0,2.51-3.61,3.16,3.16,0,0,0-6.19,1.24A3.16,3.16,0,0,0,186.06,75.05Z" style="fill:#fff"></path><path d="M177.15,77.23a3.16,3.16,0,0,0,2.16-3.82,3.16,3.16,0,0,0-6.05,1.81A3.17,3.17,0,0,0,177.15,77.23Z" style="fill:#fff"></path><path d="M226.22,72.26c-.38-1-.8-2-1.27-3.07a3.2,3.2,0,0,0-4.95,2,3.16,3.16,0,0,0,6.21,1.13S226.21,72.28,226.22,72.26Z" style="fill:#fff"></path><path d="M188.46,46a3.09,3.09,0,0,0-2.66,3.51,3,3,0,0,0,6-.69A3.11,3.11,0,0,0,188.46,46Z" style="fill:#fff"></path><path d="M195.14,73.69A3.19,3.19,0,0,0,198,70.33a3.16,3.16,0,0,0-6.28.66A3.18,3.18,0,0,0,195.14,73.69Z" style="fill:#fff"></path><path d="M194.88,48.58a3.16,3.16,0,0,0,3.17,3A3.07,3.07,0,0,0,201,48.37a3,3,0,0,0-.2-1c-1.34-.63-2.71-1.22-4.1-1.77A3,3,0,0,0,194.88,48.58Z" style="fill:#fff"></path><path d="M145.86,90.49a3.07,3.07,0,0,0-4.46-.2,3.23,3.23,0,0,0-1.07,2.22,3,3,0,0,0,.87,2.23,3.09,3.09,0,0,0,2.17.92,3,3,0,0,0,2.2-.81A3.17,3.17,0,0,0,145.86,90.49Z" style="fill:#fff"></path><path d="M123.37,120.57a2.78,2.78,0,0,0-.88-.22c.84,1.18,1.74,2.38,2.71,3.58A3.18,3.18,0,0,0,123.37,120.57Z" style="fill:#fff"></path><path d="M117.9,109.48a3.11,3.11,0,0,0-3.48-4c.6,1.51,1.39,3.35,2.43,5.42A3,3,0,0,0,117.9,109.48Z" style="fill:#fff"></path><path d="M204.1,49A3.15,3.15,0,0,0,207,51.5a2.9,2.9,0,0,0,1.1-.19Q206.16,50.11,204.1,49Z" style="fill:#fff"></path><path d="M204.25,67a3.07,3.07,0,0,0-3.13,3.17,3.16,3.16,0,0,0,6.31,0A3.07,3.07,0,0,0,204.25,67Z" style="fill:#fff"></path><path d="M168.53,80.27a3.1,3.1,0,1,0-4.07-1.58A3.14,3.14,0,0,0,168.53,80.27Z" style="fill:#fff"></path><path d="M210.59,70.23A3.15,3.15,0,1,0,214,67.35,3.12,3.12,0,0,0,210.59,70.23Z" style="fill:#fff"></path></g><path d="M144.83,111s28-41.53,83.42-25.13" style="fill:none;stroke:#263238;stroke-linecap:round;stroke-linejoin:round"></path><path d="M225.84,98.93s-15.72-17.62-36-15.69" style="fill:none;stroke:#263238;stroke-linecap:round;stroke-linejoin:round"></path><path d="M120.22,116.3s-5.79-42.93,27.49-69" style="fill:none;stroke:#263238;stroke-linecap:round;stroke-linejoin:round"></path><path d="M113,101.35s-6.75-22.19,13.51-37.14" style="fill:none;stroke:#263238;stroke-linecap:round;stroke-linejoin:round"></path><path d="M133.72,132.7s2.13-22.9,32.32-36.18c29.45-13,59.8,2.41,59.8,2.41s7.24-12.05-1-29.9-34.73-29.42-59.33-29.42S136.13,55.53,127,61.31s-28.46,21.23-24.6,27.5S113,101.35,113,101.35A69.54,69.54,0,0,0,133.72,132.7Z" style="fill:none;stroke:#263238;stroke-linecap:round;stroke-linejoin:round"></path><path d="M38.5,343.78a43,43,0,0,0-4.32,17.9c0,7.41.62,20.68,1.54,25.3s6.79,5.25,10.49,5.25S57.94,386.37,70.28,374s49.38-64.8,49.38-64.8,8.33-11.11,11.42-15.74,5.55-26.54,6.48-28.09,7.1-4.62,10.49-5.86,7.72-3.09,8-5.55-4,0-7.41.92-11.11,2.47-11.11,2.47,7.1-6.17,8-6.79,11.11-4.63,11.73-7.71-7.1,1.23-10.8,2.16-13.27,7.71-13.27,6.79.62-1.55,1.23-3.09,10.19-9.26,11.73-10.49,8.64-2.47,9.88-5.87-6.18-1.85-9.57-.3-16.66,10.18-16.66,10.18,7.4-9.57,9-11.11,8.64-3.7,8-7.41S133.55,229,132,230.21s-7.72,8.34-7.72,8.34,1.24-3.71-.62-6.48-2.77,0-3.7,4.32-3.7,10.8-4.32,13.88S111,286.69,111,286.69a12.5,12.5,0,0,1-2.16,6.48c-2.16,3.08-31.48,28.39-43.2,34.87s-21,12.65-21,12.65" style="fill:#fff;stroke:#263238;stroke-linecap:round;stroke-linejoin:round"></path><path d="M124.29,238.55s-4.63,6.48-5.25,8.64" style="fill:none;stroke:#263238;stroke-linecap:round;stroke-linejoin:round"></path><path d="M208.16,271.63c14.52,0,26.65,13,29.58,30.27a47.57,47.57,0,0,0,.68-8.09c0-21.19-13.55-38.36-30.26-38.36s-30.27,17.17-30.27,38.36a48.61,48.61,0,0,0,.68,8.09C181.5,284.6,193.63,271.63,208.16,271.63Z" style="fill:#FF33CC"></path><path d="M208.16,271.63c14.52,0,26.65,13,29.58,30.27a47.57,47.57,0,0,0,.68-8.09c0-21.19-13.55-38.36-30.26-38.36s-30.27,17.17-30.27,38.36a48.61,48.61,0,0,0,.68,8.09C181.5,284.6,193.63,271.63,208.16,271.63Z" style="opacity:0.27"></path><path d="M208.16,271.63c14.52,0,26.65,13,29.58,30.27a47.57,47.57,0,0,0,.68-8.09c0-21.19-13.55-38.36-30.26-38.36s-30.27,17.17-30.27,38.36a48.61,48.61,0,0,0,.68,8.09C181.5,284.6,193.63,271.63,208.16,271.63Z" style="fill:none;stroke:#263238;stroke-linecap:round;stroke-linejoin:round"></path><path d="M230.67,268.49c.59,9.56,2.09,15.16-6.9,32-7.13,13.34-44.46,56.13-59.57,73.23L171.34,396c9.68-12.69,21.91-24.86,31.34-37.78,8.16-11.19,14.25-18.25,22-29.82,6.84-10.25,10.9-13.77,13.12-26.49C240.87,281.31,230.67,268.49,230.67,268.49Z" style="fill:#FF33CC;stroke:#263238;stroke-linecap:round;stroke-linejoin:round"></path><path d="M252,373.47c-15.22-17.23-52.28-59.74-59.39-73-9-16.8-7.49-22.4-6.89-32,0,0-10.21,12.82-7.11,33.41,2.21,12.72,6.28,16.24,13.12,26.49,7.73,11.57,14.07,17.84,22.23,29,9.37,12.83,21.26,25.71,30.91,38.32Z" style="fill:#FF33CC;stroke:#263238;stroke-linecap:round;stroke-linejoin:round"></path><path d="M254.21,419.7c-1.14-3.78-2.31-7.34-3.48-10.73-92.53,18.44-143.3,5.09-156.94.45a307,307,0,0,0-9,31.26,180.3,180.3,0,0,0-3.4,35.49H265S261.31,443.15,254.21,419.7Z" style="fill:#263238;stroke:#263238;stroke-linecap:round;stroke-linejoin:round"></path><path d="M175,420.5s2.5,23,1,36" style="fill:none;stroke:#8c8c8c;stroke-linecap:round;stroke-linejoin:round"></path><path d="M104,416l-3,7c14.5,5.5,40.5,6.5,40.5,6.5l-.5-9" style="fill:none;stroke:#8c8c8c;stroke-linecap:round;stroke-linejoin:round"></path><polyline points="147 422 147 430 158 430" style="fill:none;stroke:#8c8c8c;stroke-linecap:round;stroke-linejoin:round"></polyline><polyline points="191 430 213.5 428.5 213 419.5" style="fill:none;stroke:#8c8c8c;stroke-linecap:round;stroke-linejoin:round"></polyline><path d="M220,419.5l.5,7.5s18.5-.5,29.5-5.5" style="fill:none;stroke:#8c8c8c;stroke-linecap:round;stroke-linejoin:round"></path><path d="M226,431s1,22.5,35,34.5" style="fill:none;stroke:#8c8c8c;stroke-linecap:round;stroke-linejoin:round"></path><path d="M113.5,429.5a70.65,70.65,0,0,1-29,30" style="fill:none;stroke:#8c8c8c;stroke-linecap:round;stroke-linejoin:round"></path><path d="M184.74,426a3.6,3.6,0,1,1-3.6-3.59A3.6,3.6,0,0,1,184.74,426Z" style="fill:#fff;stroke:#8c8c8c;stroke-linecap:round;stroke-linejoin:round"></path><line x1="471" y1="475.83" x2="479" y2="475.83" style="fill:none;stroke:#263238;stroke-linecap:round;stroke-linejoin:round"></line><line x1="23" y1="475.83" x2="456" y2="475.83" style="fill:none;stroke:#263238;stroke-linecap:round;stroke-linejoin:round"></line></g></svg>